<?xml version="1.0" standalone="no"?>
<!DOCTYPE svg PUBLIC "-//W3C//DTD SVG 20010904//EN"
 "http://www.w3.org/TR/2001/REC-SVG-20010904/DTD/svg10.dtd">
<svg version="1.0" xmlns="http://www.w3.org/2000/svg"
 width="90px" height="90px" viewBox="0 0 260.000000 337.000000"
 preserveAspectRatio="xMidYMid meet">
<metadata>
Created by potrace 1.16, written by Peter Selinger 2001-2019
</metadata>
<g transform="translate(0.000000,337.000000) scale(0.100000,-0.100000)"
fill="#000000" stroke="none">
<path d="M640 3321 c-117 -36 -180 -132 -180 -277 0 -62 0 -62 -32 -69 -93
-21 -192 -102 -237 -195 -24 -50 -26 -68 -29 -198 -3 -101 0 -147 8 -158 15
-17 54 -18 68 -1 5 6 12 73 14 147 3 113 8 142 25 175 28 53 78 99 133 124
l45 20 5 -128 c5 -133 14 -161 51 -161 9 0 25 7 33 16 14 13 16 52 16 267 0
290 3 302 85 338 58 26 106 17 154 -27 l36 -32 5 -170 c5 -181 11 -202 56
-202 35 0 44 28 44 135 0 112 16 156 64 186 40 25 112 25 152 0 53 -32 64 -71
64 -229 0 -151 8 -177 53 -170 33 5 47 45 47 136 0 96 15 133 63 162 68 42
162 14 199 -60 15 -28 18 -62 18 -176 0 -124 2 -143 18 -157 45 -41 72 -8 72
87 0 55 5 82 23 116 54 106 190 106 245 0 20 -40 22 -59 22 -187 l0 -143 -40
0 c-83 0 -160 -50 -205 -131 -24 -44 -29 -66 -29 -119 0 -39 6 -77 16 -94 14
-27 14 -33 -3 -70 -36 -80 -19 -166 45 -230 45 -46 113 -72 166 -64 25 4 30 1
30 -17 0 -27 -28 -109 -68 -196 l-30 -66 -88 -7 c-112 -8 -191 -29 -279 -72
-256 -125 -412 -413 -374 -689 22 -165 81 -286 194 -400 194 -197 473 -255
737 -155 120 45 181 105 148 146 -18 21 -44 17 -97 -16 -63 -39 -146 -68 -236
-81 -58 -9 -90 -8 -160 4 -398 69 -611 484 -434 846 44 90 168 215 257 259 36
17 92 38 125 47 76 19 214 19 289 0 157 -41 313 -167 379 -306 50 -105 61
-150 61 -264 0 -119 -17 -186 -77 -297 -41 -75 -41 -77 -23 -97 27 -30 51 -26
79 12 101 133 143 354 101 534 -43 190 -184 368 -363 457 -51 25 -101 46 -111
46 -32 0 -31 16 5 98 49 112 65 181 72 308 6 122 -2 154 -40 154 -36 0 -47
-19 -47 -81 0 -56 -1 -58 -34 -69 -27 -9 -42 -8 -74 5 -71 29 -94 89 -62 162
23 53 25 88 5 123 -8 14 -14 46 -15 71 0 77 60 146 138 156 l42 6 0 -110 c0
-71 4 -113 12 -121 18 -18 56 -14 68 7 13 26 13 593 0 642 -15 52 -49 99 -98
133 -59 42 -159 49 -227 16 -25 -12 -47 -21 -49 -19 -1 2 -8 18 -15 35 -46
116 -203 170 -321 112 l-49 -24 -9 21 c-18 38 -64 86 -106 107 -58 31 -155 30
-216 -1 -35 -19 -45 -21 -48 -10 -3 8 -28 37 -56 65 -66 67 -145 89 -226 65z"/>
<path d="M845 2536 c-73 -36 -115 -98 -115 -172 0 -69 31 -107 103 -129 101
-30 208 -11 263 46 24 25 29 39 28 77 -1 63 -35 126 -85 159 -50 33 -146 42
-194 19z m151 -110 c40 -40 45 -79 12 -97 -12 -6 -49 -11 -83 -11 -34 0 -71 5
-83 11 -55 29 10 131 83 131 29 0 45 -8 71 -34z"/>
<path d="M172 2268 c-8 -8 -12 -59 -12 -163 0 -250 25 -312 232 -580 72 -93
142 -194 156 -223 51 -111 52 -122 52 -649 0 -433 2 -493 16 -507 22 -22 50
-20 68 6 14 20 16 84 16 493 l0 470 40 28 c56 39 92 118 89 191 -2 49 1 60 24
84 32 33 66 108 67 144 0 31 -30 53 -59 43 -10 -3 -26 -26 -36 -51 -9 -25 -35
-65 -56 -90 -38 -44 -39 -47 -36 -114 2 -56 -2 -73 -19 -97 -12 -15 -25 -27
-30 -25 -5 1 -16 24 -25 50 -28 82 -54 123 -188 297 -139 180 -191 268 -191
320 0 47 38 96 94 124 45 22 53 23 95 12 58 -15 104 -61 128 -126 17 -47 22
-52 90 -85 40 -19 84 -47 98 -62 14 -16 34 -28 44 -28 20 0 51 30 51 48 0 26
-73 90 -131 116 -33 15 -62 35 -65 44 -32 109 -133 189 -239 191 -54 1 -105
-14 -149 -44 -20 -14 -39 -25 -41 -25 -3 0 -5 44 -5 98 0 103 -7 122 -45 122
-12 0 -26 -5 -33 -12z"/>
<path d="M1445 1828 c-85 -30 -136 -130 -103 -202 36 -81 251 -88 302 -11 33
50 9 145 -48 185 -50 36 -100 46 -151 28z"/>
<path d="M1650 1190 c-11 -7 -16 -34 -18 -110 l-4 -100 -93 0 c-128 0 -125 4
-125 -170 0 -166 -5 -160 128 -160 l90 0 4 -101 c4 -131 2 -129 168 -129 161
0 160 -1 160 133 l0 97 99 0 c134 0 131 -4 131 165 0 166 1 165 -137 165 l-93
0 0 98 c0 63 -4 102 -12 110 -15 15 -275 17 -298 2z m220 -179 c0 -130 1 -131
126 -131 l94 0 0 -70 0 -70 -98 0 c-63 0 -102 -4 -110 -12 -8 -8 -12 -47 -12
-110 l0 -98 -70 0 -70 0 0 98 c0 63 -4 102 -12 110 -8 8 -48 12 -115 12 l-103
0 0 70 0 70 93 0 c133 0 137 4 137 131 l0 99 70 0 70 0 0 -99z"/>
<path d="M893 569 c-65 -19 -125 -122 -107 -182 24 -78 159 -114 261 -68 50
23 63 45 63 104 0 102 -112 178 -217 146z"/>
</g>
</svg>
