<?xml version="1.0" standalone="no"?>
<!DOCTYPE svg PUBLIC "-//W3C//DTD SVG 20010904//EN"
 "http://www.w3.org/TR/2001/REC-SVG-20010904/DTD/svg10.dtd">
<svg version="1.0" xmlns="http://www.w3.org/2000/svg"
 width="90px" height="90px" viewBox="0 0 400.000000 360.000000"
 preserveAspectRatio="xMidYMid meet">
<metadata>
Created by potrace 1.16, written by Peter Selinger 2001-2019
</metadata>
<g transform="translate(0.000000,360.000000) scale(0.100000,-0.100000)"
fill="#000000" stroke="none">
<path d="M1312 3380 c-252 -46 -466 -247 -517 -486 -8 -38 -15 -114 -15 -169
-1 -68 -5 -108 -15 -125 -40 -70 1 -173 85 -212 45 -21 49 -26 50 -58 0 -55
27 -147 62 -213 36 -67 126 -162 181 -192 36 -19 37 -21 37 -81 l0 -61 -167
-43 c-180 -45 -238 -70 -298 -128 -66 -64 -83 -116 -110 -344 -71 -590 -96
-836 -90 -882 11 -92 62 -157 144 -185 22 -7 119 -11 266 -11 219 0 233 1 250
20 15 17 16 24 7 45 -11 24 -15 25 -112 25 l-100 0 0 73 c0 39 4 142 10 227
26 432 32 601 20 615 -16 19 -54 19 -69 1 -6 -7 -14 -57 -18 -110 l-6 -96
-119 0 c-106 0 -118 2 -118 18 0 22 37 354 46 407 8 52 35 103 71 137 27 26
106 67 130 68 7 0 49 -38 95 -83 62 -63 100 -92 151 -116 176 -82 333 -82 504
0 84 40 186 123 212 173 9 15 23 26 35 26 27 0 132 -54 129 -66 -1 -5 -10 -29
-19 -54 -9 -25 -27 -144 -40 -265 -14 -121 -27 -226 -29 -232 -12 -35 -23 -3
-29 84 -8 105 -16 123 -51 123 -49 0 -49 -7 -31 -353 10 -177 20 -379 23 -450
l6 -127 -271 0 c-264 0 -272 -1 -282 -21 -9 -16 -8 -26 5 -45 l15 -24 590 0
c522 0 590 2 604 16 19 18 20 28 6 55 -9 17 -22 19 -102 19 l-91 0 6 113 c46
851 46 817 -7 817 -31 0 -46 -19 -46 -57 0 -18 -4 -33 -9 -33 -14 0 -212 48
-216 52 -11 11 28 277 46 315 30 63 105 116 191 137 25 6 27 3 37 -45 44 -204
232 -358 440 -360 88 -1 134 8 209 42 118 53 216 170 253 304 19 69 27 72 116
29 66 -32 109 -81 127 -147 19 -66 40 -267 29 -277 -6 -6 -190 -50 -207 -50
-3 0 -8 15 -11 32 -10 43 -22 58 -51 58 -44 0 -45 -17 -25 -407 11 -202 21
-402 23 -443 l3 -75 -282 -3 c-273 -2 -283 -3 -293 -23 -9 -16 -8 -26 5 -45
l15 -24 418 0 418 0 55 28 c31 15 63 41 77 61 49 75 49 80 -2 551 -77 700 -77
701 -166 784 -67 62 -103 78 -292 126 l-168 43 0 61 c0 60 1 62 37 81 66 36
150 131 192 216 l39 80 16 -47 c11 -32 16 -82 16 -156 0 -105 1 -109 29 -140
26 -29 35 -33 78 -32 26 1 75 9 108 18 119 30 142 99 84 244 -36 91 -77 165
-127 230 -43 54 -68 133 -52 162 16 29 12 278 -5 361 -9 40 -32 107 -53 149
-36 72 -38 75 -72 75 -31 0 -35 -3 -38 -27 -2 -14 7 -46 19 -69 36 -71 57
-144 65 -220 7 -68 6 -72 -12 -64 -10 4 -28 10 -39 13 -11 2 -26 10 -34 16 -9
7 -63 11 -140 11 -150 0 -185 13 -267 101 -70 75 -97 75 -168 -2 -81 -89 -107
-99 -261 -99 -71 0 -137 -5 -145 -10 -8 -6 -30 -15 -47 -21 l-33 -12 0 52 c1
166 118 362 272 454 106 63 159 76 303 77 121 0 135 -2 200 -29 39 -16 89 -42
113 -57 48 -32 83 -37 102 -14 35 42 -40 104 -195 164 -83 32 -99 34 -205 35
-68 1 -138 -5 -170 -13 -138 -35 -299 -140 -379 -249 -55 -74 -84 -130 -112
-222 -23 -75 -28 -184 -20 -436 2 -59 1 -63 -49 -129 -80 -106 -160 -280 -160
-348 0 -36 30 -91 57 -105 10 -6 55 -17 100 -26 71 -15 85 -15 115 -3 46 19
56 49 61 187 4 102 18 170 36 170 3 0 20 -31 38 -69 38 -81 108 -162 181 -208
l53 -34 -3 -57 -3 -57 -90 -23 c-199 -51 -272 -74 -317 -102 l-48 -29 -47 29
c-44 27 -204 77 -355 110 l-58 13 0 58 0 58 55 36 c118 79 202 211 226 357 11
64 17 79 33 84 34 10 85 53 101 85 19 35 22 107 6 136 -6 12 -15 83 -20 160
-14 213 -60 321 -191 451 -113 111 -242 168 -401 176 -51 3 -118 1 -147 -4z
m241 -105 c240 -62 418 -295 405 -530 l-3 -54 -25 14 c-14 8 -41 22 -60 32
-57 28 -107 71 -131 111 -39 66 -59 82 -100 82 -34 0 -42 -6 -81 -57 -50 -65
-114 -112 -196 -144 -79 -30 -222 -37 -326 -15 -67 14 -82 14 -100 3 -12 -8
-31 -16 -43 -19 -21 -6 -23 -3 -23 40 1 141 66 299 165 398 65 64 169 124 251
143 62 14 204 12 267 -4z m97 -464 c0 -21 97 -114 142 -137 l49 -25 -3 -197
-3 -198 -34 -69 c-132 -268 -487 -325 -690 -110 -30 31 -66 84 -84 123 -30 66
-31 70 -35 249 l-4 181 43 -10 c63 -15 225 -14 289 1 102 25 194 74 257 138
58 60 73 71 73 54z m1206 -70 c73 -67 155 -95 282 -94 l92 0 0 -152 c0 -84 -5
-177 -10 -206 -42 -222 -265 -378 -486 -340 -137 24 -259 115 -314 234 -36 77
-52 192 -48 347 l3 115 96 1 c60 1 116 8 147 18 63 21 136 68 158 100 9 14 19
26 21 26 3 0 29 -22 59 -49z m-657 -465 c9 -11 7 -28 -10 -78 -16 -48 -21 -86
-21 -160 0 -72 -3 -98 -12 -98 -37 0 -129 25 -133 36 -10 26 61 187 119 272
31 45 39 49 57 28z m1281 -56 c33 -51 100 -209 100 -235 0 -19 -28 -30 -95
-39 l-50 -7 -1 103 c0 78 -5 117 -22 163 -19 55 -20 61 -5 72 21 16 32 7 73
-57z m-1906 -492 c4 -10 16 -20 27 -23 25 -8 24 -17 -3 -35 -107 -69 -231 -74
-335 -14 -24 14 -43 27 -43 30 0 3 12 15 26 27 21 18 27 34 31 84 l6 61 96 -5
c53 -3 114 -1 136 4 l40 9 6 -60 c3 -34 9 -69 13 -78z m1262 125 l101 5 6 -62
c5 -53 10 -65 36 -87 35 -29 39 -60 16 -117 -34 -79 -107 -126 -196 -126 -104
1 -187 74 -204 181 -6 39 -4 44 18 54 33 15 47 49 47 114 l0 53 38 -10 c21 -6
81 -8 138 -5z m-1039 -207 c13 -13 -104 -110 -170 -141 -192 -91 -412 -52
-557 99 -29 31 -32 38 -20 46 28 18 59 10 97 -25 21 -20 67 -50 103 -68 60
-29 73 -32 165 -32 124 1 191 24 267 94 47 43 56 47 82 40 16 -5 31 -11 33
-13z m703 -1 c0 -41 38 -129 75 -173 72 -83 206 -121 317 -88 99 29 192 133
207 233 6 44 9 48 31 45 14 -2 29 -8 34 -12 13 -13 -1 -71 -35 -138 -101 -203
-363 -263 -550 -126 -71 52 -133 155 -141 233 -3 30 1 36 22 42 39 11 40 11
40 -16z m-315 -599 l100 -23 -1 -84 c-1 -114 -23 -575 -30 -621 l-6 -38 -66 0
c-129 0 -181 32 -189 117 -3 26 9 174 26 328 37 337 39 345 54 345 7 -1 57
-11 112 -24z m1395 -288 c19 -172 34 -330 33 -350 -3 -88 -62 -128 -188 -128
-70 0 -75 1 -75 21 0 23 -26 524 -34 646 l-4 73 36 9 c78 21 158 39 177 40 19
1 22 -16 55 -311z m-2680 115 c0 -16 -7 -140 -15 -278 -8 -137 -15 -265 -15
-282 l0 -33 -75 0 c-131 0 -188 41 -188 135 0 42 42 451 49 473 2 9 36 12 124
12 l120 0 0 -27z"/>
</g>
</svg>
