<?xml version="1.0" standalone="no"?>
<!DOCTYPE svg PUBLIC "-//W3C//DTD SVG 20010904//EN"
 "http://www.w3.org/TR/2001/REC-SVG-20010904/DTD/svg10.dtd">
<svg version="1.0" xmlns="http://www.w3.org/2000/svg"
 width="90px" height="90px" viewBox="0 0 1920.000000 1920.000000"
 preserveAspectRatio="xMidYMid meet">

<g transform="translate(0.000000,1920.000000) scale(0.100000,-0.100000)"
fill="#004d00" stroke="none">
<path d="M9220 19194 c-30 -2 -136 -8 -235 -14 -1831 -109 -3644 -775 -5120
-1880 -592 -443 -1168 -989 -1646 -1560 -637 -760 -1161 -1641 -1538 -2583
-908 -2272 -908 -4842 0 -7114 420 -1051 1001 -1987 1768 -2848 256 -288 690
-707 1011 -976 1208 -1012 2694 -1723 4250 -2033 648 -129 1187 -181 1890
-181 566 0 927 26 1430 101 1397 209 2725 723 3900 1509 537 359 970 715 1446
1190 496 495 848 921 1223 1485 1190 1786 1744 3934 1570 6085 -148 1844 -821
3593 -1948 5065 -408 532 -947 1094 -1481 1541 -766 641 -1654 1169 -2600
1544 -932 370 -1858 579 -2905 655 -146 11 -905 21 -1015 14z m915 -545 c2502
-142 4849 -1337 6460 -3289 1060 -1284 1744 -2831 1979 -4475 63 -437 88 -813
88 -1285 0 -472 -25 -848 -88 -1285 -393 -2755 -2043 -5183 -4470 -6580 -1098
-633 -2340 -1031 -3597 -1155 -333 -33 -544 -42 -907 -42 -363 0 -574 9 -907
42 -2365 233 -4560 1408 -6088 3260 -1060 1284 -1744 2831 -1979 4475 -63 437
-88 813 -88 1285 0 363 10 588 43 910 248 2469 1493 4713 3468 6253 848 661
1841 1178 2871 1498 1033 320 2115 451 3215 388z"/>
<path d="M6365 15615 c-326 -72 -578 -309 -682 -641 l-28 -89 0 -2090 c0
-2208 -1 -2153 46 -2430 210 -1228 1049 -2261 2207 -2715 1326 -521 2827 -204
3830 808 515 520 863 1197 981 1907 47 285 46 211 46 2425 l0 2095 -28 89
c-30 97 -80 203 -128 273 -92 133 -257 264 -408 322 -170 66 54 61 -2999 60
-2265 -1 -2788 -3 -2837 -14z m5346 -1118 c19 -12 42 -38 51 -57 17 -33 18
-140 18 -1813 0 -1932 4 -1802 -55 -1857 l-27 -25 -2476 -2 c-2441 -3 -2477
-3 -2509 17 -18 10 -40 31 -50 47 -17 26 -18 109 -18 1818 0 1782 0 1790 20
1825 12 19 36 43 55 52 33 17 173 18 2496 18 l2461 0 34 -23z m-3266 -4891
c207 -70 374 -237 442 -440 24 -72 27 -96 28 -216 0 -115 -3 -145 -23 -205
-39 -116 -87 -193 -182 -286 -70 -70 -103 -95 -171 -127 -110 -52 -194 -72
-309 -72 -116 0 -200 20 -310 73 -115 55 -247 186 -303 297 -84 170 -100 365
-42 535 78 231 271 407 509 461 97 22 263 13 361 -20z m1964 -2 c106 -35 208
-102 291 -190 316 -336 205 -894 -217 -1090 -110 -52 -188 -67 -323 -61 -192
7 -315 62 -456 203 -142 141 -212 318 -201 514 14 254 155 472 377 583 124 62
195 78 335 73 87 -3 128 -9 194 -32z"/>
<path d="M6920 12630 l0 -1620 2293 2 2292 3 0 1615 0 1615 -2292 3 -2293 2 0
-1620z m2905 718 c67 -73 57 -154 -25 -211 -22 -16 -71 -17 -585 -17 -537 0
-561 1 -592 20 -45 27 -66 64 -66 115 0 51 21 88 66 116 31 19 51 19 600 17
l569 -3 33 -37z m-10 -1238 c72 -67 72 -143 0 -210 l-27 -25 -566 -3 c-548 -2
-568 -2 -599 17 -45 28 -66 65 -66 116 0 51 21 88 66 116 31 19 51 19 599 17
l566 -3 27 -25z"/>
<path d="M8135 9356 c-213 -53 -355 -265 -316 -472 62 -339 466 -470 707 -230
198 199 146 539 -102 664 -100 50 -191 62 -289 38z"/>
<path d="M10091 9355 c-80 -23 -145 -62 -202 -122 -219 -231 -107 -606 206
-689 185 -50 384 45 472 224 36 73 38 80 38 176 -1 118 -22 185 -85 265 -99
125 -281 187 -429 146z"/>
<path d="M7670 6871 l0 -581 1540 0 1540 0 0 580 0 580 -47 -19 c-27 -10 -82
-32 -123 -49 -259 -103 -611 -189 -930 -229 -181 -22 -666 -25 -835 -5 -406
49 -792 150 -1132 299 -10 4 -13 -115 -13 -576z"/>
<path d="M12707 6828 c-57 -71 -212 -292 -291 -418 -233 -367 -391 -720 -450
-1006 -65 -310 -23 -705 100 -959 75 -155 183 -264 329 -335 121 -58 207 -73
383 -68 127 4 158 9 231 33 277 94 451 338 518 725 24 138 24 456 0 570 -73
345 -246 723 -520 1135 -68 102 -233 332 -257 358 -4 5 -23 -11 -43 -35z"/>
<path d="M8725 6008 c-3 -7 -4 -560 -3 -1228 l3 -1215 488 -3 487 -2 0 1230 0
1230 -485 0 c-379 0 -487 -3 -490 -12z"/>
</g>
</svg>
