<?xml version="1.0" standalone="no"?>
<!DOCTYPE svg PUBLIC "-//W3C//DTD SVG 20010904//EN"
 "http://www.w3.org/TR/2001/REC-SVG-20010904/DTD/svg10.dtd">
<svg version="1.0" xmlns="http://www.w3.org/2000/svg"
 width="90px" height="90px" viewBox="0 0 417.000000 421.000000"
 preserveAspectRatio="xMidYMid meet">
<metadata>
Created by potrace 1.16, written by Peter Selinger 2001-2019
</metadata>
<g transform="translate(0.000000,421.000000) scale(0.100000,-0.100000)"
fill="#000000" stroke="none">
<path d="M640 3610 c-26 -26 -26 -36 11 -149 96 -298 167 -663 201 -1026 16
-180 16 -630 0 -810 -34 -360 -106 -730 -201 -1026 -37 -113 -37 -123 -11
-149 25 -25 62 -26 85 -1 32 36 129 385 179 646 117 611 117 1259 0 1870 -50
261 -147 610 -179 646 -23 25 -60 24 -85 -1z"/>
<path d="M1961 3613 c-22 -18 -22 -19 -19 -383 l3 -365 37 -74 37 -74 -22 -18
c-38 -32 -150 -87 -202 -100 -100 -24 -177 -84 -209 -163 -22 -53 -20 -141 4
-194 10 -23 18 -42 16 -42 -2 0 -23 7 -47 15 -122 43 -203 39 -278 -15 -101
-74 -130 -233 -60 -331 l19 -27 -28 -48 c-38 -69 -39 -168 0 -236 l27 -48 -27
-47 c-36 -63 -38 -167 -5 -229 25 -47 75 -94 120 -113 22 -9 33 -23 41 -50 17
-54 67 -125 110 -155 46 -31 52 -32 86 -5 37 29 34 64 -10 102 -32 29 -71 85
-62 91 2 1 20 12 42 25 l39 22 36 -24 c40 -26 85 -42 147 -52 38 -6 43 -10 59
-50 21 -56 84 -121 143 -147 25 -11 74 -23 109 -26 l63 -5 0 -188 c0 -245 -13
-229 189 -229 l150 0 20 26 c19 24 21 40 21 174 l0 148 43 -5 c26 -3 62 2 97
14 53 18 58 18 100 1 112 -43 234 2 297 110 23 39 27 58 27 117 0 58 -4 79
-27 119 l-27 48 27 46 c23 39 27 58 27 117 0 59 -4 78 -27 117 l-27 46 27 48
c38 68 39 159 1 232 l-27 52 25 43 c67 122 20 278 -102 338 -67 32 -137 30
-254 -8 -165 -53 -160 -54 -91 29 185 228 204 475 50 629 -61 61 -137 92 -239
99 l-85 5 -2 310 c-3 302 -3 310 -24 328 -28 22 -54 22 -79 -3 -19 -19 -20
-33 -20 -344 0 -319 0 -323 23 -357 33 -50 81 -71 144 -64 133 16 244 -71 260
-205 4 -34 -1 -68 -15 -117 -56 -183 -207 -330 -388 -378 -69 -18 -199 -21
-267 -6 -69 16 -167 62 -209 100 -96 84 -64 198 67 235 81 22 129 43 195 84
75 47 160 131 160 159 0 12 -18 46 -40 75 -67 88 -70 109 -70 475 0 310 -1
324 -20 343 -25 25 -51 25 -79 3z m-406 -1528 c205 -62 330 -79 575 -79 241 0
328 11 535 71 66 19 135 37 153 40 69 11 132 -40 132 -109 0 -37 -26 -98 -41
-98 -3 0 -18 -11 -33 -25 -39 -36 -33 -62 24 -115 47 -43 50 -49 50 -94 0 -45
-4 -52 -50 -97 -30 -29 -50 -57 -50 -71 0 -13 19 -39 50 -68 47 -43 50 -49 50
-95 0 -46 -3 -52 -50 -95 -31 -29 -50 -55 -50 -68 0 -14 20 -42 50 -71 46 -45
50 -52 50 -96 0 -99 -108 -150 -190 -90 -43 32 -70 32 -116 0 -48 -33 -99 -33
-144 0 -41 30 -73 32 -100 5 -18 -18 -20 -33 -20 -195 l0 -175 -59 0 c-58 0
-59 1 -65 31 -3 17 -6 94 -6 171 0 134 -1 141 -25 173 -34 44 -42 93 -21 133
32 62 48 66 280 72 l210 5 13 25 c18 35 18 575 0 609 -21 42 -41 47 -97 27
-58 -21 -90 -16 -133 20 -42 35 -80 32 -112 -10 -30 -39 -80 -60 -119 -50 -14
3 -42 21 -61 40 -45 43 -65 43 -112 0 -66 -58 -120 -55 -180 9 -39 43 -64 44
-122 5 -50 -34 -73 -37 -124 -15 -48 20 -54 19 -82 -10 l-25 -24 0 -237 0
-236 -34 -34 c-29 -29 -41 -34 -81 -34 -40 0 -52 5 -81 34 -29 29 -34 41 -34
81 0 44 4 51 50 96 28 27 50 57 50 69 0 12 -22 42 -50 69 -46 45 -50 52 -50
96 0 44 4 51 50 96 28 27 50 57 50 69 0 20 -44 70 -61 70 -16 0 -39 59 -39
101 0 33 6 47 34 75 44 44 65 43 211 -1z m448 -442 l67 4 0 -38 c0 -26 -8 -47
-24 -66 -23 -26 -31 -28 -117 -33 -89 -5 -94 -6 -109 -32 -13 -25 -13 -31 0
-55 15 -27 18 -28 118 -31 79 -2 109 1 134 14 78 39 118 103 118 187 l0 54 49
-5 c67 -6 112 3 155 33 35 24 39 24 73 10 19 -8 55 -15 79 -15 l44 0 0 -80 0
-80 -118 0 c-135 0 -155 -8 -155 -60 0 -52 20 -60 155 -60 l118 0 0 -64 0 -65
-178 -3 -179 -3 -49 -30 c-67 -42 -106 -108 -112 -187 l-5 -60 -29 6 c-65 13
-109 64 -121 140 -10 63 -29 76 -111 76 -56 0 -80 5 -111 24 -25 14 -38 28
-35 37 2 8 6 103 8 212 l4 197 43 0 c23 0 57 6 74 13 29 12 36 11 89 -16 51
-25 65 -28 125 -24z"/>
<path d="M3535 3611 c-32 -36 -129 -385 -179 -646 -33 -173 -53 -318 -70 -505
-14 -146 -14 -156 3 -180 23 -32 64 -37 89 -12 15 15 21 46 31 163 30 354 103
726 201 1033 35 110 36 120 10 146 -25 25 -62 26 -85 1z"/>
<path d="M3291 1784 c-15 -20 -20 -36 -16 -63 3 -20 9 -92 15 -161 27 -305 97
-663 193 -978 37 -121 56 -152 94 -152 27 0 63 32 63 56 0 10 -13 59 -30 110
-98 307 -171 679 -201 1033 -10 115 -16 148 -31 163 -26 26 -63 23 -87 -8z"/>
</g>
</svg>
