<?xml version="1.0" standalone="no"?>
<!DOCTYPE svg PUBLIC "-//W3C//DTD SVG 20010904//EN"
 "http://www.w3.org/TR/2001/REC-SVG-20010904/DTD/svg10.dtd">
<svg version="1.0" xmlns="http://www.w3.org/2000/svg"
 width="90px" height="90px" viewBox="-70 -20 404.000000 382.000000"
 preserveAspectRatio="xMidYMid meet">
<metadata>
Created by potrace 1.16, written by Peter Selinger 2001-2019
</metadata>
<g transform="translate(0.000000,382.000000) scale(0.100000,-0.100000)"
fill="#000000" stroke="none">
<path d="M1268 3371 c-40 -13 -85 -48 -104 -80 -21 -36 -57 -56 -114 -65 -24
-4 -59 -16 -77 -27 -37 -23 -83 -84 -83 -110 0 -10 -20 -38 -45 -63 -70 -73
-84 -172 -34 -253 19 -31 32 -116 28 -183 -7 -101 -2 -138 25 -183 30 -52 91
-102 136 -112 30 -7 34 -13 45 -80 16 -97 115 -242 201 -295 34 -21 34 -22 34
-93 l0 -71 113 -113 c80 -80 120 -113 136 -113 17 0 55 31 127 101 l103 101
134 -4 c131 -3 136 -4 210 -41 90 -44 146 -102 190 -197 28 -59 31 -75 36
-202 6 -144 11 -157 53 -158 39 0 48 26 48 140 0 194 -39 301 -149 411 -109
108 -218 149 -401 149 l-100 0 0 34 c0 28 6 38 34 55 44 28 116 106 148 161
24 41 49 115 63 182 4 19 13 28 34 33 46 10 107 59 138 112 22 38 28 61 29
115 1 51 7 75 25 104 20 34 23 52 25 158 3 148 -6 186 -55 235 -29 29 -39 48
-44 86 -9 61 -39 109 -90 143 -34 22 -52 27 -107 27 -81 0 -120 -21 -120 -64
0 -36 22 -55 55 -47 14 3 36 9 50 12 68 17 121 -45 110 -126 -7 -48 -7 -49 34
-74 55 -35 75 -68 66 -108 -4 -18 -7 -46 -7 -63 0 -16 3 -45 7 -63 5 -22 2
-39 -9 -57 -14 -21 -20 -23 -42 -15 -14 6 -40 10 -59 10 -25 0 -35 5 -40 20
-3 11 -18 23 -33 26 -15 3 -35 8 -44 11 -10 2 -34 24 -54 49 -25 30 -44 44
-61 44 -31 0 -63 16 -84 42 -23 29 -65 26 -100 -8 -38 -36 -91 -38 -136 -6
-40 29 -64 28 -91 -3 -12 -14 -31 -25 -41 -25 -25 0 -51 -26 -51 -50 0 -45 58
-64 112 -36 25 13 34 13 74 -1 52 -17 104 -14 157 12 33 15 38 16 59 1 12 -9
30 -16 39 -16 10 0 38 -20 63 -45 26 -25 58 -48 71 -51 l25 -6 0 -177 c0 -97
-5 -195 -10 -219 -28 -119 -103 -213 -218 -269 -72 -36 -81 -38 -172 -38 -91
0 -100 2 -172 37 -91 45 -147 103 -191 196 l-32 67 -3 203 c-3 137 0 202 7
202 6 0 26 16 45 35 44 44 59 114 31 145 -10 11 -26 20 -35 20 -21 0 -50 -31
-50 -52 0 -33 -13 -48 -50 -58 -24 -6 -41 -18 -45 -30 -5 -15 -15 -20 -40 -20
-18 0 -41 -3 -51 -7 -18 -7 -18 -8 2 71 4 18 -2 31 -25 55 -64 66 -54 124 33
184 16 11 26 27 26 43 0 62 52 107 116 102 40 -3 128 54 145 94 13 31 54 58
89 58 12 0 34 -7 51 -15 27 -14 35 -14 83 1 69 22 131 13 185 -26 62 -45 101
-36 101 22 0 61 -144 127 -249 113 -68 -9 -80 -9 -151 -1 -30 3 -67 2 -82 -3z
m262 -1536 c41 0 92 4 113 8 34 7 37 6 37 -15 0 -16 -25 -48 -75 -98 l-75 -74
-75 74 c-50 50 -75 82 -75 98 0 21 3 22 38 15 20 -4 71 -8 112 -8z"/>
<path d="M2734 3202 c-149 -86 -279 -163 -288 -171 -14 -12 -16 -51 -16 -351
0 -308 1 -338 18 -352 39 -34 561 -328 582 -328 21 0 544 294 583 328 15 13
17 35 17 168 0 162 -6 184 -50 184 -42 0 -50 -24 -50 -160 l0 -128 -67 -39
c-274 -160 -421 -243 -432 -243 -7 0 -74 35 -149 79 -76 43 -184 106 -242 139
l-105 61 0 291 0 291 105 61 c58 33 166 96 242 139 75 44 142 79 149 79 11 0
158 -83 432 -243 l67 -39 0 -78 c0 -83 12 -110 50 -110 40 0 50 26 50 134 0
86 -3 105 -17 118 -42 36 -562 328 -584 328 -13 -1 -146 -71 -295 -158z"/>
<path d="M2897 3062 c-27 -29 -20 -50 34 -107 61 -64 62 -90 7 -120 -54 -29
-81 -13 -96 57 -16 67 -36 98 -66 98 -46 0 -55 -37 -30 -127 5 -19 0 -24 -50
-38 -44 -13 -57 -22 -62 -41 -15 -59 15 -73 106 -50 91 24 110 15 110 -54 0
-67 -16 -75 -108 -53 -93 22 -123 8 -108 -51 5 -19 18 -28 62 -41 50 -14 55
-19 50 -38 -25 -90 -16 -127 30 -127 30 0 50 31 66 98 15 70 42 86 96 57 55
-30 54 -56 -7 -120 -54 -57 -62 -82 -33 -108 28 -25 48 -21 92 19 l40 36 40
-36 c45 -40 69 -45 93 -18 27 29 20 50 -34 107 -61 64 -62 90 -7 120 54 29 81
13 96 -57 16 -67 36 -98 66 -98 46 0 55 37 30 127 -5 19 0 24 50 38 61 18 78
44 56 84 -13 25 -34 26 -107 5 -79 -23 -103 -11 -103 53 0 70 21 80 110 57 91
-23 121 -9 106 50 -5 19 -18 28 -62 41 -50 14 -55 19 -50 38 25 90 16 127 -30
127 -30 0 -50 -31 -66 -98 -15 -70 -42 -86 -96 -57 -55 30 -54 56 7 120 54 57
62 82 33 108 -28 25 -48 21 -92 -19 l-40 -36 -40 36 c-45 40 -69 45 -93 18z
m173 -312 c38 -20 40 -22 40 -70 0 -48 -1 -50 -40 -70 l-40 -20 -40 20 c-39
20 -40 22 -40 70 0 47 2 51 38 69 46 25 36 25 82 1z"/>
<path d="M1302 2597 c-63 -32 -78 -51 -67 -87 11 -34 47 -34 116 1 35 17 67
37 71 43 20 29 -6 77 -40 75 -9 0 -45 -14 -80 -32z"/>
<path d="M1646 2614 c-17 -16 -20 -42 -8 -60 4 -6 36 -26 71 -43 69 -35 105
-35 116 -1 11 36 -4 55 -70 88 -74 36 -87 38 -109 16z"/>
<path d="M734 2284 c-22 -33 -22 -100 0 -142 9 -17 34 -43 55 -56 34 -22 39
-30 45 -77 6 -40 15 -60 40 -85 40 -40 99 -58 135 -41 47 22 36 87 -15 87 -34
0 -64 34 -64 73 0 42 -32 93 -74 118 -42 24 -48 39 -35 78 15 41 -3 71 -41 71
-21 0 -35 -8 -46 -26z"/>
<path d="M2209 2289 c-8 -16 -8 -28 0 -46 16 -35 6 -58 -34 -82 -43 -25 -75
-76 -75 -118 0 -39 -30 -73 -64 -73 -51 0 -62 -65 -15 -87 31 -15 84 -3 124
29 32 25 55 74 55 117 0 23 8 34 35 51 75 46 103 140 62 203 -22 34 -71 38
-88 6z"/>
<path d="M1430 2189 c-54 -23 -77 -68 -48 -97 15 -15 53 -15 77 0 15 9 24 8
43 -4 55 -36 135 -31 173 12 40 44 -15 99 -70 70 -20 -11 -28 -10 -49 3 -32
21 -94 29 -126 16z"/>
<path d="M1013 1816 c-181 -44 -334 -202 -372 -384 -17 -80 -14 -636 3 -685
34 -95 116 -156 221 -165 l65 -5 0 -83 c0 -87 12 -114 50 -114 38 0 50 27 50
115 l0 83 183 6 c100 4 193 6 207 5 14 0 157 -3 318 -5 l292 -5 0 -84 c0 -88
12 -115 50 -115 38 0 50 27 50 114 l0 83 65 5 c105 9 187 70 221 165 20 56 19
247 -2 267 -17 18 -42 20 -64 6 -11 -7 -16 -37 -20 -127 -4 -101 -8 -122 -27
-149 -45 -62 -55 -64 -432 -64 l-341 0 0 100 0 100 284 0 c245 0 287 2 300 16
14 13 16 49 16 234 0 232 -4 250 -50 250 -45 0 -50 -20 -50 -215 l0 -184 -292
-5 c-161 -2 -304 -5 -318 -5 -14 -1 -107 1 -207 5 l-183 6 0 183 c0 195 -5
215 -50 215 -46 0 -50 -18 -50 -250 0 -185 2 -221 16 -234 12 -12 37 -16 102
-16 l87 0 0 -101 0 -100 -155 3 c-142 3 -158 5 -186 25 -64 45 -66 59 -62 406
l3 313 37 76 c63 127 180 210 317 224 65 7 91 22 91 54 0 49 -60 62 -167 36z
m365 -951 l52 -16 0 -69 0 -69 -52 -16 c-118 -35 -148 -17 -148 85 0 102 30
120 148 85z"/>
<path d="M2547 1462 c-26 -29 -21 -49 28 -101 61 -65 65 -93 26 -172 -21 -43
-31 -79 -31 -109 0 -30 10 -66 31 -109 39 -79 35 -107 -26 -172 -48 -51 -55
-77 -29 -103 26 -27 55 -18 102 30 87 91 103 172 52 269 -16 31 -30 70 -30 85
0 15 14 54 30 85 51 97 35 178 -52 269 -48 49 -75 57 -101 28z"/>
<path d="M2797 1462 c-26 -29 -21 -49 28 -101 61 -65 65 -93 26 -172 -21 -43
-31 -79 -31 -109 0 -30 10 -66 31 -109 39 -79 35 -107 -26 -172 -48 -51 -55
-77 -29 -103 26 -27 55 -18 102 30 87 91 103 172 52 269 -16 31 -30 70 -30 85
0 15 14 54 30 85 51 97 35 178 -52 269 -48 49 -75 57 -101 28z"/>
</g>
</svg>
