<?xml version="1.0" standalone="no"?>
<!DOCTYPE svg PUBLIC "-//W3C//DTD SVG 20010904//EN"
 "http://www.w3.org/TR/2001/REC-SVG-20010904/DTD/svg10.dtd">
<svg version="1.0" xmlns="http://www.w3.org/2000/svg"
 width="100px" height="100px" viewBox="-50 -10 512.000000 512.000000"
 preserveAspectRatio="xMidYMid meet">
<g transform="translate(0.000000,512.000000) scale(0.100000,-0.100000)"
fill="#000000" stroke="none">
<path d="M2375 3744 c-157 -22 -242 -47 -272 -80 -22 -24 -23 -32 -23 -207 0
-165 -2 -185 -20 -212 -29 -44 -26 -86 9 -119 34 -33 47 -96 36 -176 -8 -61
-30 -83 -110 -115 -69 -28 -109 -67 -124 -122 -12 -41 -13 -200 -2 -248 6 -26
8 -22 15 30 10 82 34 174 54 208 9 15 41 39 70 54 57 28 89 28 247 3 88 -15
480 -16 561 -2 93 16 145 32 139 42 -4 6 -133 10 -323 10 -315 0 -447 10 -468
33 -8 8 -9 37 -5 87 l6 75 50 -4 c82 -8 110 -7 111 4 0 6 -21 15 -47 22 -26 7
-62 19 -80 28 l-34 15 35 -5 c219 -35 241 -37 410 -32 109 3 205 11 253 22 43
9 81 15 83 12 3 -3 -21 -15 -53 -26 -103 -38 -105 -42 -17 -36 l81 5 6 -68 c3
-37 13 -86 22 -108 15 -38 20 -42 69 -53 108 -24 152 -77 186 -225 l19 -81 -2
121 c-3 155 -16 180 -133 239 -49 25 -84 49 -91 65 -7 14 -13 60 -13 104 0 73
2 81 30 112 40 46 47 78 24 110 -46 64 -46 63 -41 219 6 186 0 211 -64 243
-74 36 -179 52 -379 56 -102 3 -198 2 -215 0z m450 -79 c57 -10 85 -20 97 -35
9 -11 21 -20 27 -20 18 0 22 -39 19 -200 l-3 -155 -48 -24 c-36 -17 -68 -24
-135 -27 l-87 -4 70 35 70 34 -57 1 c-32 0 -58 3 -58 8 0 4 14 16 30 27 30 20
65 88 55 106 -4 5 -23 9 -44 9 -36 0 -37 1 -39 38 -2 20 -5 45 -8 56 -4 11 -2
16 4 12 6 -4 14 -27 18 -51 7 -47 13 -52 44 -35 16 9 18 18 13 60 -5 40 -3 50
9 50 8 0 18 -15 24 -37 14 -57 38 -50 44 12 5 46 6 48 18 28 6 -12 12 -29 12
-38 0 -8 7 -18 16 -22 28 -10 35 10 23 65 l-12 52 -238 0 c-229 0 -415 12
-462 29 -20 8 -17 10 23 21 113 31 411 33 575 5z m-612 -78 c18 -8 49 -17 70
-21 20 -4 37 -11 37 -16 0 -6 -4 -10 -10 -10 -5 0 -14 -15 -19 -32 l-10 -33 2
40 c2 35 -1 40 -21 43 -20 3 -22 0 -22 -48 0 -47 2 -52 20 -47 15 4 20 0 20
-14 0 -14 -7 -19 -29 -19 -41 0 -54 -22 -55 -92 l-1 -62 63 -18 c34 -10 62
-23 62 -28 0 -14 -121 -12 -150 3 -25 12 -25 15 -32 177 -4 91 -5 171 -3 178
6 16 38 15 78 -1z m454 -139 c-3 -8 -6 -5 -6 6 -1 11 2 17 5 13 3 -3 4 -12 1
-19z m-521 -257 c56 -27 133 -41 280 -50 205 -14 486 13 565 54 27 15 39 11
39 -11 0 -21 -67 -50 -160 -70 -118 -26 -517 -26 -630 0 -98 22 -144 45 -148
74 -4 27 3 27 54 3z"/>
<path d="M2164 3545 c-9 -37 3 -77 23 -73 18 3 38 61 29 84 -9 24 -45 16 -52
-11z"/>
<path d="M2330 2189 c-199 -20 -380 -70 -380 -105 0 -38 179 -84 402 -105 287
-26 707 14 806 77 20 13 21 18 10 31 -65 79 -519 134 -838 102z"/>
<path d="M3995 2084 c-33 -13 -118 -40 -188 -59 -180 -49 -269 -86 -402 -166
-63 -38 -117 -69 -120 -69 -3 0 -6 37 -6 83 -1 79 -15 172 -18 119 -3 -66 -35
-399 -61 -642 -27 -247 -33 -281 -58 -329 -22 -44 -37 -60 -76 -80 l-48 -25
-157 22 c-188 27 -382 29 -543 6 -140 -20 -228 -16 -265 12 -16 12 -39 41 -53
65 -23 41 -24 56 -31 259 -7 201 -17 288 -53 450 -18 81 -19 51 -6 -133 6 -78
14 -230 20 -337 5 -121 15 -214 24 -246 19 -62 63 -129 102 -155 20 -13 24
-19 12 -19 -33 0 -103 64 -131 122 -31 62 -31 56 -51 750 -5 169 -17 293 -30
305 -7 7 -16 -200 -16 -369 l0 -178 -56 0 c-30 0 -53 4 -50 9 16 25 -110 96
-259 148 -102 35 -118 37 -220 37 -101 0 -120 -3 -235 -41 -69 -23 -152 -46
-184 -52 -33 -6 -62 -13 -64 -16 -8 -7 47 -64 83 -86 l30 -19 -74 0 c-167 0
-403 -51 -538 -116 -66 -32 -193 -134 -193 -155 0 -5 27 -9 59 -9 33 0 109
-10 168 -22 167 -33 339 -27 516 17 l28 8 -26 -29 c-14 -15 -38 -55 -54 -88
-30 -66 -66 -185 -57 -193 2 -3 40 6 83 21 43 14 164 48 268 75 172 45 311 93
398 137 17 9 93 53 167 97 130 78 183 97 207 73 4 -4 11 -71 14 -149 7 -152
15 -184 71 -265 84 -122 288 -176 658 -175 416 0 593 64 672 240 17 38 23 76
28 183 4 74 10 143 15 153 10 25 50 43 123 57 l62 13 93 -56 c133 -80 223
-119 457 -198 113 -39 247 -91 298 -116 51 -25 95 -43 99 -40 12 13 -36 208
-66 269 -17 34 -31 62 -31 64 0 1 17 -2 38 -8 49 -14 243 -4 304 16 26 8 102
38 170 67 97 41 133 51 175 51 47 0 52 1 43 17 -23 44 -157 144 -268 200 -147
74 -411 136 -512 120 -81 -13 -175 -46 -293 -105 -154 -77 -172 -74 -78 16 88
84 113 140 120 276 5 74 12 119 22 135 9 13 24 36 34 52 17 27 17 27 -6 27
-13 -1 -51 -12 -84 -26z m9 -66 c-4 -7 -18 -27 -30 -45 -13 -17 -24 -39 -24
-47 0 -11 -10 -16 -32 -17 -18 0 -42 -4 -53 -8 -17 -7 -13 -11 28 -29 26 -11
47 -22 47 -24 0 -2 -51 -3 -112 -3 -71 0 -120 -5 -133 -12 -17 -11 -10 -12 45
-13 49 0 78 -7 115 -25 l50 -25 -40 7 c-64 12 -226 6 -270 -11 l-40 -15 92 0
c51 -1 116 -6 145 -13 l53 -12 -70 -8 c-38 -4 -110 -12 -160 -18 -102 -11
-220 -48 -280 -87 -60 -40 -28 -38 76 4 93 37 96 38 229 38 94 0 142 -4 158
-13 l24 -14 -34 -17 c-23 -13 -68 -20 -149 -25 -64 -4 -143 -11 -175 -16 -33
-6 -83 -10 -111 -10 -47 0 -53 -2 -53 -21 0 -11 -4 -17 -10 -14 -13 8 -13 90
1 138 23 84 220 199 507 297 223 76 216 74 206 58z m492 -398 c162 -35 298
-91 393 -160 24 -17 39 -35 35 -40 -15 -14 -225 -96 -284 -111 -60 -15 -233
-19 -292 -6 -20 4 -76 37 -130 77 -54 41 -125 83 -170 102 -42 17 -75 35 -72
40 10 16 105 59 207 94 115 39 151 40 313 4z m-3081 -40 c84 -26 205 -80 205
-91 0 -5 -19 -9 -42 -9 -24 0 -61 -5 -82 -10 -33 -7 -50 -4 -97 15 -63 25
-119 40 -119 31 0 -3 18 -15 41 -26 23 -12 39 -23 37 -25 -2 -2 -31 4 -63 13
-53 16 -132 20 -242 13 -34 -2 -28 -16 17 -36 47 -21 71 -45 46 -45 -21 0
-156 53 -216 84 l-44 24 34 7 c19 4 73 19 120 32 198 59 272 63 405 23z m2150
-165 c253 -99 451 -192 551 -259 67 -45 144 -106 133 -106 -3 0 -36 15 -75 34
-38 18 -127 55 -199 81 -217 79 -538 243 -635 326 -30 25 -45 30 225 -76z
m305 60 c124 -39 272 -118 341 -182 42 -40 70 -77 99 -135 22 -44 40 -88 40
-97 0 -9 -37 22 -88 75 -134 140 -286 231 -527 315 -66 23 -124 46 -130 51
-21 21 177 1 265 -27z m-2360 -83 c0 -5 -24 -19 -52 -33 -29 -13 -70 -39 -90
-58 -44 -39 -51 -31 -10 12 l27 29 -25 -7 c-14 -4 -84 -38 -156 -76 -72 -37
-135 -65 -139 -61 -3 4 -5 1 -3 -7 1 -7 -3 -16 -11 -19 -9 -3 -11 0 -6 8 11
17 -22 -2 -60 -36 l-30 -26 38 27 c21 15 41 25 44 22 4 -5 -37 -38 -92 -75 -5
-4 -23 -21 -38 -38 l-28 -31 148 58 c81 32 281 110 443 174 162 64 302 119
310 122 13 6 13 4 1 -10 -16 -21 -158 -105 -303 -181 -126 -66 -257 -116 -426
-161 -111 -29 -170 -48 -244 -80 -15 -6 -16 -3 -8 24 13 45 59 126 97 171 51
59 165 130 287 179 136 54 326 96 326 73z m-580 -12 c36 -6 78 -16 94 -22 27
-11 28 -12 8 -19 -12 -5 -74 -13 -139 -18 -113 -10 -162 -18 -477 -76 -211
-38 -249 -31 -133 24 85 40 169 66 290 90 160 32 251 37 357 21z m885 -40 c-3
-5 -16 -15 -28 -21 -21 -10 -21 -9 2 10 25 23 36 27 26 11z m-933 -92 c-90
-41 -374 -80 -437 -59 -22 7 -25 10 -10 11 11 0 112 16 225 35 113 18 219 33
235 33 29 0 28 0 -13 -20z"/>
<path d="M4295 1596 c-52 -16 -98 -41 -114 -60 -21 -25 5 -21 90 14 80 33 119
61 84 59 -11 0 -38 -6 -60 -13z"/>
<path d="M4378 1564 c-41 -12 -107 -68 -95 -80 2 -3 36 11 74 30 39 19 82 38
97 42 14 3 26 10 26 15 0 13 -48 10 -102 -7z"/>
<path d="M4466 1524 c-41 -15 -66 -31 -66 -44 0 -7 159 45 169 56 10 10 -67 1
-103 -12z"/>
<path d="M4543 1486 c-33 -15 -48 -44 -17 -32 9 3 73 6 142 7 120 1 125 1 94
15 -51 22 -180 28 -219 10z"/>
<path d="M1550 1822 c0 -89 24 -157 73 -206 38 -38 197 -143 197 -130 0 19
-28 48 -87 91 -76 56 -118 110 -128 166 -6 29 -4 37 8 37 22 0 105 -98 123
-147 29 -76 76 -67 54 12 -22 80 -63 131 -147 185 -43 28 -81 50 -85 50 -5 0
-8 -26 -8 -58z"/>
<path d="M1640 1711 c0 -14 44 -74 58 -79 18 -6 15 16 -9 54 -19 31 -49 46
-49 25z"/>
</g>
</svg>