<?xml version="1.0" standalone="no"?>
<!DOCTYPE svg PUBLIC "-//W3C//DTD SVG 20010904//EN"
 "http://www.w3.org/TR/2001/REC-SVG-20010904/DTD/svg10.dtd">
<svg version="1.0" xmlns="http://www.w3.org/2000/svg"
 width="90px" height="90px" viewBox="0 0 291.000000 286.000000"
 preserveAspectRatio="xMidYMid meet">
<metadata>
Created by potrace 1.16, written by Peter Selinger 2001-2019
</metadata>
<g transform="translate(0.000000,286.000000) scale(0.100000,-0.100000)"
fill="#000000" stroke="none">
<path d="M851 2754 c-218 -58 -358 -275 -338 -519 12 -130 81 -291 191 -440
69 -94 229 -260 337 -351 83 -69 295 -214 371 -254 l48 -25 47 25 c87 46 277
175 368 252 254 213 429 440 501 651 105 308 -57 620 -350 670 -135 23 -262
-22 -383 -136 -65 -62 -173 -209 -173 -236 0 -6 -4 -11 -10 -11 -5 0 -10 5
-10 11 0 27 -108 174 -173 236 -133 126 -274 168 -426 127z m240 -116 c110
-50 225 -185 294 -343 19 -44 43 -86 55 -94 32 -21 56 3 95 94 69 158 178 285
293 342 49 24 68 28 137 27 97 -1 154 -23 223 -88 93 -87 137 -230 114 -368
-29 -168 -139 -346 -337 -544 -150 -150 -345 -302 -473 -368 l-34 -18 -79 48
c-144 87 -292 205 -425 338 -255 256 -368 484 -337 683 24 158 124 275 268
314 52 14 149 3 206 -23z"/>
<path d="M221 2102 c-6 -11 -22 -124 -36 -251 l-26 -231 20 -202 c11 -112 23
-241 27 -288 4 -47 13 -98 21 -113 8 -16 67 -78 131 -140 271 -258 368 -372
392 -455 5 -20 10 -101 10 -179 0 -115 3 -144 16 -157 20 -21 48 -20 69 1 14
14 16 38 13 187 -3 170 -3 171 -35 232 -50 95 -135 194 -331 381 l-180 172 -7
88 c-3 48 -15 175 -26 282 l-19 193 21 192 c12 105 23 192 25 194 8 10 47 -24
63 -56 30 -58 41 -142 41 -303 0 -136 3 -159 34 -281 19 -73 43 -153 54 -178
23 -54 283 -320 312 -320 25 0 50 27 50 52 0 14 -46 68 -129 152 -78 78 -136
146 -146 169 -18 44 -66 219 -61 224 7 7 87 -15 111 -31 14 -9 56 -62 95 -119
38 -56 75 -109 82 -118 7 -9 78 -60 158 -114 166 -112 329 -266 369 -349 22
-45 23 -56 17 -143 -3 -52 -15 -139 -26 -194 -25 -127 -27 -290 -4 -313 20
-20 48 -20 68 0 12 12 16 37 16 107 0 51 9 138 20 195 11 56 20 118 20 137 0
19 5 35 10 35 6 0 10 -16 10 -35 0 -19 9 -81 20 -137 11 -57 20 -144 20 -195
0 -70 4 -95 16 -107 20 -20 48 -20 68 0 23 23 21 186 -4 313 -11 55 -23 142
-26 194 -6 87 -5 98 17 143 40 83 203 237 369 349 80 54 151 105 158 114 7 9
44 62 82 118 39 57 81 110 95 119 24 16 104 38 111 31 5 -5 -43 -180 -61 -224
-10 -23 -68 -91 -146 -169 -83 -84 -129 -138 -129 -152 0 -25 25 -52 49 -52
10 0 80 62 156 137 156 155 162 165 215 376 27 107 30 135 30 276 0 167 13
246 51 307 17 27 47 51 54 42 1 -2 12 -89 24 -194 l21 -192 -19 -193 c-11
-107 -23 -234 -26 -282 l-7 -88 -180 -172 c-196 -187 -281 -286 -331 -381 -32
-61 -32 -62 -35 -232 -3 -149 -1 -173 13 -187 21 -21 49 -22 69 -1 13 13 16
42 16 157 0 78 5 159 10 179 24 83 116 192 387 450 67 64 128 129 136 145 8
15 18 69 22 118 3 50 15 179 26 288 l19 199 -25 230 c-14 127 -30 239 -36 250
-9 18 -18 20 -65 16 -78 -7 -130 -46 -172 -128 -41 -83 -52 -143 -52 -296 l0
-123 -47 -6 c-118 -15 -152 -41 -260 -200 -67 -97 -73 -103 -213 -200 -218
-150 -395 -332 -415 -427 -4 -15 -10 -28 -15 -28 -5 0 -11 13 -15 28 -21 95
-197 277 -415 427 -140 97 -146 103 -213 200 -109 159 -142 185 -259 200 l-48
6 0 123 c0 153 -11 213 -52 296 -42 82 -94 121 -172 128 -47 4 -56 2 -65 -16z"/>
</g>
</svg>
