<?xml version="1.0" standalone="no"?>
<!DOCTYPE svg PUBLIC "-//W3C//DTD SVG 20010904//EN"
 "http://www.w3.org/TR/2001/REC-SVG-20010904/DTD/svg10.dtd">
<svg version="1.0" xmlns="http://www.w3.org/2000/svg"
 width="90px" height="90px" viewBox="0 0 64 64"
 preserveAspectRatio="xMidYMid meet">

<g fill="#004d00" stroke="none">
<path d="M32,58c-0.6,0-1.1-0.2-1.6-0.6c-0.6-0.5-14.3-12.5-21.4-19.8C3.1,33.9,0,28.2,0,22C0,12.1,8.1,4,18,4 c4.6,0,8.9,1.8,12,4.9C33.1,5.8,37.4,4,42,4c9.9,0,18,8.1,18,18c0,6.2-3.1,11.9-9,15.6c-7.1,7.3-20.8,19.3-21.4,19.8 C33.1,57.8,32.6,58,32,58z M18,8C10.3,8,4,14.3,4,22c0,5.2,2.7,10.3,8.3,14.6c6.2,6.3,17.1,15.5,19.7,17.7 c2.5-2.2,13.5-11.4,19.7-17.7C57.3,32.3,60,27.2,60,22c0-7.7-6.3-14-14-14c-4.4,0-8.5,2-11.2,5.5c-0.8,1-2.2,1-3,0 C26.5,10,22.4,8,18,8z"/>
<path d="M40,26h-4v-4c0-1.1-0.9-2-2-2h-4c-1.1,0-2,0.9-2,2v4h-4c-1.1,0-2,0.9-2,2v4c0,1.1,0.9,2,2,2h4v4c0,1.1,0.9,2,2,2h4c1.1,0,2-0.9,2-2v-4h4c1.1,0,2-0.9,2-2v-4C42,26.9,41.1,26,40,26z"/>
</g>
</svg>
