<?xml version="1.0" standalone="no"?>
<!DOCTYPE svg PUBLIC "-//W3C//DTD SVG 20010904//EN"
 "http://www.w3.org/TR/2001/REC-SVG-20010904/DTD/svg10.dtd">
<svg version="1.0" xmlns="http://www.w3.org/2000/svg"
 width="90px" height="90px" viewBox="0 0 514.000000 456.000000"
 preserveAspectRatio="xMidYMid meet">
<metadata>
Created by potrace 1.16, written by Peter Selinger 2001-2019
</metadata>
<g transform="translate(0.000000,456.000000) scale(0.100000,-0.100000)"
fill="#000000" stroke="none">
<path d="M2922 3851 c-47 -12 -122 -42 -122 -48 0 -3 9 -22 21 -43 l21 -37 52
20 c113 45 267 18 361 -65 43 -38 105 -129 105 -155 0 -7 -42 5 -107 32 -59
24 -108 43 -109 42 -1 -1 -16 -31 -33 -67 -16 -36 -40 -71 -52 -78 -11 -7 -22
-12 -22 -10 -43 89 -116 130 -202 114 -71 -14 -145 -115 -133 -180 4 -17 -2
-32 -17 -46 l-22 -21 -6 48 c-11 97 22 207 82 276 35 39 34 53 -9 92 l-22 20
-34 -40 c-100 -119 -137 -274 -99 -419 l15 -58 -56 -73 -55 -73 -46 20 c-57
25 -155 27 -243 5 -54 -13 -302 -72 -388 -92 -21 -5 -23 -10 -17 -45 7 -44 21
-38 -162 -80 -51 -12 -93 -25 -93 -28 0 -26 23 -82 33 -82 7 0 64 13 127 29
63 15 118 25 122 22 11 -10 67 -255 60 -263 -4 -4 -81 -22 -171 -41 l-164 -35
-86 29 c-46 16 -88 29 -92 29 -5 0 -14 -19 -21 -42 -10 -35 -10 -42 2 -47 8
-3 49 -16 90 -30 l75 -26 96 -160 c53 -88 105 -175 114 -192 l18 -33 -108
-242 c-59 -134 -111 -247 -115 -252 -28 -30 -23 215 6 319 9 33 18 69 21 80 3
15 -46 78 -197 249 -112 126 -209 244 -216 262 -21 49 -17 113 9 164 36 71 78
97 206 127 l113 28 -7 39 c-3 22 -8 42 -10 45 -8 7 -206 -39 -251 -59 -142
-61 -209 -254 -137 -394 16 -33 102 -140 210 -261 l181 -205 -13 -52 c-25 -95
-34 -208 -24 -288 7 -62 78 -292 94 -309 3 -2 16 20 29 50 13 30 38 86 57 124
l32 70 8 -80 c5 -43 10 -84 13 -91 2 -6 -9 -63 -25 -125 -52 -199 -139 -546
-139 -553 0 -3 317 -6 705 -6 463 0 705 3 705 10 0 10 -148 665 -154 686 -2 5
3 25 10 44 l14 33 46 -61 c38 -52 74 -80 249 -197 112 -75 210 -143 217 -152
7 -8 27 -47 43 -87 l31 -71 97 -3 98 -3 19 43 c58 132 39 322 -44 445 -13 19
-100 114 -193 210 -92 97 -173 185 -180 197 -7 11 -30 120 -52 241 -30 164
-41 255 -45 360 -3 106 -10 165 -30 242 l-25 102 36 96 c42 111 27 106 166 55
48 -18 89 -31 91 -29 17 20 189 466 198 514 35 191 -92 415 -278 489 -74 30
-209 43 -272 27z m383 -419 l70 -29 -1 -49 c-1 -36 -20 -95 -74 -224 -39 -96
-75 -179 -79 -183 -11 -12 -213 64 -238 90 -16 15 -23 34 -23 61 0 36 -3 40
-42 55 -23 9 -43 15 -46 13 -2 -3 -6 -23 -9 -45 -8 -57 19 -123 67 -163 l38
-33 -28 -70 c-15 -38 -31 -70 -35 -69 -4 1 -79 52 -167 115 -88 63 -165 117
-171 121 -13 8 48 91 160 214 75 83 82 95 77 123 -10 46 3 79 37 97 60 30 115
-20 107 -98 -3 -33 -3 -33 37 -30 66 5 146 50 180 103 25 38 34 45 50 38 11
-4 52 -21 90 -37z m-898 -422 c24 -10 141 -89 262 -176 l220 -157 27 -111 c22
-90 28 -134 27 -231 0 -139 -14 -206 -74 -356 -22 -57 -43 -110 -46 -117 -5
-11 51 -42 75 -42 5 0 24 38 42 85 18 47 36 85 39 85 4 0 19 -63 33 -141 l27
-140 178 -185 c98 -102 190 -202 205 -222 57 -76 83 -222 57 -315 -9 -33 -13
-37 -42 -37 -30 0 -34 5 -67 73 l-35 72 -211 140 c-212 141 -249 174 -302 267
l-25 45 35 89 36 89 -42 17 c-22 9 -44 13 -47 10 -3 -4 -34 -77 -68 -163 l-63
-156 -282 114 c-154 63 -356 144 -448 181 -92 37 -168 70 -168 74 0 3 49 127
109 275 l109 268 208 51 c115 27 209 54 209 60 0 5 -4 26 -8 47 -6 29 -12 37
-25 33 -68 -21 -343 -82 -347 -77 -2 4 -26 103 -54 221 -28 118 -54 225 -57
236 -5 20 4 24 173 63 98 24 183 44 188 46 30 10 115 2 152 -15z m-497 -547
c0 -15 -125 -323 -131 -323 -11 0 -161 262 -154 268 8 8 229 59 263 61 12 0
22 -2 22 -6z m68 -860 c130 -53 240 -99 245 -103 4 -4 -51 -57 -123 -119 -71
-62 -130 -116 -130 -120 0 -4 13 -20 30 -36 l30 -29 22 20 c13 11 73 63 133
114 61 51 119 101 130 111 19 17 26 15 169 -44 l150 -62 32 -140 c17 -77 46
-201 63 -274 17 -74 31 -143 31 -153 0 -17 -19 -18 -328 -18 l-329 0 -41 108
c-23 59 -45 112 -49 117 -5 6 -28 23 -53 37 -111 64 -203 206 -234 360 -24
116 -20 328 5 328 5 0 116 -43 247 -97z m-220 -534 c35 -48 136 -137 170 -151
7 -2 22 -36 69 -155 4 -10 -40 -13 -201 -13 -113 0 -206 4 -206 8 0 5 23 95
50 202 28 107 50 196 51 199 0 3 6 -2 12 -13 7 -10 31 -45 55 -77z"/>
<path d="M957 2112 c-15 -15 -27 -31 -27 -34 0 -4 46 -47 102 -97 l102 -91 28
27 c15 15 28 32 28 39 0 10 -190 184 -202 184 -2 0 -16 -13 -31 -28z"/>
<path d="M940 1756 l-125 -11 3 -48 c3 -47 4 -48 30 -43 15 3 78 8 140 12
l113 7 -3 46 c-2 32 -7 46 -18 47 -8 1 -71 -4 -140 -10z"/>
<path d="M1062 1447 l-90 -103 36 -29 36 -29 53 60 c30 32 72 80 94 105 l39
47 -34 26 c-19 14 -37 26 -40 26 -2 0 -45 -46 -94 -103z"/>
</g>
</svg>
