<?xml version="1.0" standalone="no"?>
<!DOCTYPE svg PUBLIC "-//W3C//DTD SVG 20010904//EN"
 "http://www.w3.org/TR/2001/REC-SVG-20010904/DTD/svg10.dtd">
<svg version="1.0" xmlns="http://www.w3.org/2000/svg"
 width="90px" height="90px" viewBox="0 0 354.000000 312.000000"
 preserveAspectRatio="xMidYMid meet">
<metadata>
Created by potrace 1.16, written by Peter Selinger 2001-2019
</metadata>
<g transform="translate(0.000000,312.000000) scale(0.100000,-0.100000)"
fill="#000000" stroke="none">
<path d="M1819 3021 c-21 -21 -29 -39 -29 -64 0 -33 -2 -35 -41 -41 -26 -4
-52 -17 -70 -36 -27 -26 -29 -34 -29 -104 0 -68 3 -79 28 -106 19 -23 39 -33
70 -37 39 -5 42 -8 42 -37 0 -63 58 -106 142 -106 81 0 137 46 138 113 0 22 4
27 25 27 39 0 83 27 100 60 20 38 19 133 -1 171 -15 31 -66 59 -104 59 -15 0
-20 7 -20 25 0 34 -25 82 -49 95 -11 5 -54 10 -96 10 -71 0 -79 -2 -106 -29z
m159 -121 c3 -66 18 -80 84 -80 l48 0 0 -44 0 -43 -56 -6 c-31 -3 -59 -9 -62
-12 -4 -4 -9 -32 -12 -63 l-5 -57 -47 -3 -48 -3 0 54 c0 67 -12 79 -86 85
l-54 4 0 44 0 44 52 0 c70 0 88 17 88 87 l0 54 48 -3 47 -3 3 -55z"/>
<path d="M1020 2714 c-96 -36 -180 -70 -187 -76 -28 -23 -9 -78 27 -78 9 0 97
29 195 65 99 36 184 64 191 61 6 -2 23 -35 37 -73 14 -37 28 -75 32 -84 5 -13
-5 -22 -39 -38 -111 -54 -200 -156 -232 -269 -22 -75 -20 -185 5 -258 11 -32
19 -59 18 -60 -1 0 -74 -27 -162 -60 -150 -55 -165 -59 -245 -59 -71 1 -94 5
-141 28 -136 66 -218 224 -189 365 32 151 105 222 307 297 76 28 93 48 73 85
-6 12 -21 20 -35 20 -42 0 -223 -76 -274 -116 -166 -126 -217 -362 -119 -546
18 -33 58 -84 94 -117 83 -78 147 -104 274 -109 l95 -4 188 67 187 67 39 -35
c50 -45 112 -80 180 -102 43 -14 75 -17 153 -12 l98 5 0 -32 c0 -87 61 -208
143 -283 125 -115 317 -145 465 -71 40 19 47 27 47 52 0 47 -24 54 -101 26
-218 -77 -437 58 -460 283 l-7 67 66 60 c61 56 127 158 127 196 0 21 105 47
169 42 45 -4 62 -10 88 -34 17 -17 51 -36 75 -43 120 -36 189 -227 133 -371
-29 -75 -30 -106 -5 -120 77 -41 146 182 106 339 -9 35 -15 65 -13 67 1 2 108
-36 237 -83 232 -85 236 -87 330 -87 112 -1 185 22 265 82 240 182 228 550
-24 711 -26 17 -215 92 -420 166 -308 112 -378 135 -407 129 -68 -13 -81 -37
-199 -361 l-109 -303 -72 0 c-39 0 -85 -3 -101 -6 -29 -6 -29 -5 -40 62 -34
199 -195 348 -392 361 l-80 6 -32 90 c-43 119 -69 148 -135 153 -41 3 -78 -8
-224 -62z m1768 -160 c213 -77 367 -139 399 -160 93 -60 145 -161 145 -279 0
-80 -18 -137 -63 -199 -63 -89 -160 -138 -274 -138 -65 -1 -95 8 -429 130
-197 72 -365 137 -373 144 -12 12 2 58 93 309 59 162 112 300 117 307 5 6 16
12 24 12 7 0 170 -57 361 -126z m-1190 -149 c119 -54 192 -171 192 -305 0
-136 -66 -242 -188 -302 -59 -29 -76 -33 -147 -33 -96 1 -168 31 -236 98 -67
67 -94 135 -94 237 0 112 26 170 107 245 104 97 238 119 366 60z"/>
<path d="M1397 2297 c-156 -50 -197 -246 -74 -354 66 -58 144 -67 226 -27 59
30 79 60 62 93 -15 26 -47 27 -86 1 -40 -26 -104 -26 -138 0 -57 45 -56 138 3
180 37 26 99 26 133 0 33 -26 73 -26 87 0 17 31 3 57 -44 85 -51 30 -118 39
-169 22z"/>
<path d="M1886 1884 c-13 -13 -16 -46 -16 -204 l0 -190 25 -16 c21 -13 41 -16
99 -11 78 6 118 21 153 59 34 36 43 72 43 166 0 104 -23 154 -85 189 -51 29
-193 33 -219 7z m186 -104 c29 -30 30 -33 26 -106 -4 -90 -23 -114 -89 -114
l-39 0 0 125 0 125 36 0 c26 0 43 -8 66 -30z"/>
<path d="M2715 1546 c-35 -16 -51 -40 -60 -90 -6 -30 -11 -36 -32 -36 -34 0
-79 -28 -92 -57 -6 -13 -11 -56 -11 -94 0 -65 2 -73 29 -100 21 -21 39 -29 64
-29 33 0 35 -2 41 -41 4 -26 17 -52 36 -70 26 -27 34 -29 105 -29 74 0 78 1
111 34 26 26 34 42 34 70 0 35 1 36 38 36 56 0 91 40 99 112 10 100 -34 168
-109 168 -23 0 -28 4 -28 25 0 39 -27 83 -60 100 -36 18 -124 19 -165 1z m133
-141 c2 -27 8 -55 13 -62 6 -6 34 -13 62 -15 l52 -3 3 -47 3 -48 -53 0 c-30 0
-59 -5 -66 -12 -7 -7 -12 -31 -12 -54 0 -66 -6 -74 -56 -74 l-44 0 0 54 c0 71
-15 86 -86 86 l-55 0 3 48 3 47 55 3 c67 3 80 18 80 84 l0 49 48 -3 47 -3 3
-50z"/>
<path d="M1191 1474 c-168 -45 -294 -184 -321 -354 -36 -231 125 -449 361
-490 225 -39 449 125 490 359 53 298 -238 564 -530 485z m244 -113 c71 -34
127 -87 163 -156 24 -44 27 -61 27 -150 0 -92 -2 -104 -30 -153 -38 -71 -112
-136 -183 -162 -74 -28 -186 -24 -254 9 -69 33 -130 92 -163 157 -27 52 -30
69 -30 149 0 78 4 97 28 147 34 70 110 140 180 167 82 31 186 28 262 -8z"/>
<path d="M1162 1258 c-17 -17 -17 -389 0 -406 8 -8 48 -12 114 -12 96 0 104 2
134 26 61 51 75 112 41 174 -14 26 -17 48 -14 86 6 61 -14 107 -57 129 -36 19
-200 21 -218 3z"/>
<path d="M2200 1049 c-119 -23 -244 -120 -300 -232 -33 -66 -37 -98 -16 -117
32 -26 60 -8 93 60 108 220 373 269 544 101 69 -68 99 -140 99 -236 0 -95 -30
-167 -99 -236 -97 -97 -230 -125 -358 -77 -78 29 -164 114 -189 187 -22 63
-52 88 -83 71 -30 -16 -27 -65 9 -136 82 -164 273 -264 449 -234 235 39 400
262 363 488 -41 245 -272 408 -512 361z"/>
<path d="M2232 823 c-11 -10 -46 -87 -77 -172 -48 -129 -55 -158 -46 -177 17
-37 57 -32 82 11 21 35 21 35 94 35 73 0 73 0 94 -35 25 -43 65 -48 82 -11 9
19 2 48 -46 177 -32 88 -65 162 -77 172 -11 9 -35 17 -53 17 -18 0 -42 -8 -53
-17z"/>
<path d="M730 663 c-58 -19 -90 -56 -90 -106 0 -21 -6 -25 -41 -31 -54 -9 -86
-42 -94 -100 -15 -98 23 -171 96 -182 33 -6 37 -10 43 -44 4 -26 16 -47 37
-64 27 -23 40 -26 104 -26 64 0 77 3 103 25 20 17 33 39 37 64 6 36 9 39 45
45 26 4 47 16 64 37 22 26 26 40 26 99 0 38 -5 80 -11 94 -12 26 -63 56 -97
56 -16 0 -22 9 -27 39 -11 68 -63 102 -149 100 -17 0 -38 -3 -46 -6z m100
-141 c0 -68 15 -84 84 -90 l56 -4 0 -44 0 -44 -54 0 c-67 0 -86 -20 -86 -92
l0 -48 -45 0 -45 0 0 50 c0 68 -22 90 -90 90 l-50 0 0 44 0 43 57 6 c69 7 83
22 83 89 l0 48 45 0 45 0 0 -48z"/>
</g>
</svg>
