<?xml version="1.0" standalone="no"?>
<!DOCTYPE svg PUBLIC "-//W3C//DTD SVG 20010904//EN"
 "http://www.w3.org/TR/2001/REC-SVG-20010904/DTD/svg10.dtd">
<svg version="1.0" xmlns="http://www.w3.org/2000/svg"
 width="90px" height="90px" viewBox="0 0 310.000000 364.000000"
 preserveAspectRatio="xMidYMid meet">
<metadata>
Created by potrace 1.16, written by Peter Selinger 2001-2019
</metadata>
<g transform="translate(0.000000,364.000000) scale(0.100000,-0.100000)"
fill="#000000" stroke="none">
<path d="M240 3419 c-14 -6 -36 -20 -48 -32 -55 -51 -52 42 -52 -1560 l0
-1484 23 -33 c12 -18 35 -43 50 -54 l28 -21 1242 0 1242 0 57 28 c200 98 239
360 78 518 l-56 55 53 60 c29 32 63 79 75 104 30 61 36 170 13 239 -19 58 -79
139 -118 160 l-26 14 -3 661 c-3 624 -4 663 -22 696 -30 56 -570 593 -630 627
l-51 28 -915 2 c-596 1 -924 -2 -940 -8z m1820 -363 c0 -256 1 -264 23 -296
12 -19 38 -43 57 -54 32 -19 54 -21 292 -24 256 -3 258 -3 263 -25 3 -12 4
-287 3 -611 l-3 -589 -62 -3 c-121 -6 -140 -20 -438 -314 l-270 -268 -59 -5
c-109 -11 -203 -76 -258 -179 -19 -36 -23 -58 -23 -138 0 -89 2 -99 33 -153
l32 -57 -689 0 -690 0 -15 22 c-14 20 -16 176 -16 1468 0 1292 2 1448 16 1468
l15 22 895 0 894 0 0 -264z m340 -41 l225 -225 -217 0 c-213 0 -217 0 -232 22
-13 19 -16 58 -16 225 0 112 3 203 8 203 4 0 108 -101 232 -225z m339 -1691
c88 -44 133 -141 110 -237 -10 -42 -25 -64 -92 -134 l-80 -83 -111 0 -111 0
-95 95 -95 96 136 134 c94 92 146 136 170 143 61 18 112 13 168 -14z m-519
-774 l0 -210 -185 0 c-145 0 -194 3 -223 15 -171 72 -166 324 8 394 14 5 109
10 213 10 l187 1 0 -210z m542 175 c138 -97 118 -306 -34 -370 -29 -12 -78
-15 -223 -15 l-185 0 0 211 0 210 199 -3 199 -3 44 -30z"/>
<path d="M438 3131 l-33 -29 -3 -210 c-2 -140 0 -218 8 -231 15 -30 56 -38 80
-16 17 15 20 31 20 99 l0 81 105 -105 c58 -58 105 -109 105 -115 0 -6 -22 -33
-50 -60 -51 -50 -64 -87 -38 -113 26 -26 63 -13 113 38 27 28 54 50 60 50 6 0
33 -22 60 -50 52 -53 82 -62 109 -34 27 27 18 53 -39 113 l-54 57 54 54 c58
58 67 86 37 113 -30 28 -54 20 -112 -38 l-56 -55 -84 85 c-72 72 -81 85 -61
85 14 0 40 16 66 43 57 57 67 108 33 175 -37 75 -72 92 -189 92 -95 0 -100 -1
-131 -29z m212 -91 c24 -24 25 -47 3 -72 -12 -14 -31 -18 -80 -18 l-63 0 0 55
0 55 60 0 c47 0 64 -4 80 -20z"/>
<path d="M414 2175 c-15 -23 -15 -27 0 -50 l16 -25 345 0 c299 0 346 2 359 16
9 8 16 24 16 34 0 10 -7 26 -16 34 -13 14 -60 16 -359 16 l-345 0 -16 -25z"/>
<path d="M1272 2188 c-7 -7 -12 -24 -12 -38 0 -49 4 -50 317 -50 l293 0 16 25
c15 23 15 27 0 50 l-16 25 -293 0 c-215 0 -296 -3 -305 -12z"/>
<path d="M2161 2186 c-38 -21 -50 -54 -51 -139 0 -129 36 -167 160 -167 123 0
160 38 160 165 0 86 -15 125 -55 143 -35 16 -184 15 -214 -2z"/>
<path d="M416 1967 c-20 -29 -10 -66 21 -78 27 -10 1383 -13 1421 -2 33 8 47
49 27 79 l-15 24 -720 0 -720 0 -14 -23z"/>
<path d="M414 1695 c-15 -23 -15 -27 0 -50 l16 -25 350 0 350 0 12 25 c8 19 8
31 0 50 l-12 25 -350 0 -350 0 -16 -25z"/>
<path d="M1272 1708 c-7 -7 -12 -24 -12 -38 0 -49 4 -50 317 -50 l293 0 16 25
c15 23 15 27 0 50 l-16 25 -293 0 c-215 0 -296 -3 -305 -12z"/>
<path d="M2154 1702 c-35 -28 -44 -56 -44 -137 0 -127 37 -165 160 -165 123 0
160 38 160 165 0 131 -24 155 -160 155 -75 0 -99 -4 -116 -18z"/>
<path d="M415 1486 c-18 -27 -7 -69 20 -80 22 -8 1408 -8 1430 0 27 11 38 53
20 80 l-15 24 -720 0 -720 0 -15 -24z"/>
<path d="M414 1215 c-15 -23 -15 -27 0 -50 l16 -25 350 0 350 0 12 25 c8 19 8
31 0 50 l-12 25 -350 0 -350 0 -16 -25z"/>
<path d="M1272 1228 c-7 -7 -12 -24 -12 -38 0 -49 4 -50 317 -50 l293 0 16 25
c15 23 15 27 0 50 l-16 25 -293 0 c-215 0 -296 -3 -305 -12z"/>
<path d="M419 1009 c-22 -22 -19 -55 9 -76 23 -19 1421 -19 1444 0 28 21 31
54 9 76 -21 21 -28 21 -731 21 -703 0 -710 0 -731 -21z"/>
</g>
</svg>
