<?xml version="1.0" standalone="no"?>
<!DOCTYPE svg PUBLIC "-//W3C//DTD SVG 20010904//EN"
 "http://www.w3.org/TR/2001/REC-SVG-20010904/DTD/svg10.dtd">
<svg version="1.0" xmlns="http://www.w3.org/2000/svg"
 width="90px" height="90px" viewBox="0 0 261.000000 333.000000"
 preserveAspectRatio="xMidYMid meet">
<metadata>
Created by potrace 1.16, written by Peter Selinger 2001-2019
</metadata>
<g transform="translate(0.000000,333.000000) scale(0.100000,-0.100000)"
fill="#000000" stroke="none">
<path d="M1172 3300 c-368 -51 -750 -398 -809 -735 -19 -109 -13 -353 11 -489
l16 -88 -26 -54 c-33 -68 -31 -152 6 -229 27 -57 113 -146 156 -162 16 -6 38
-15 49 -19 15 -6 8 -9 -29 -14 -56 -7 -75 -26 -114 -109 -61 -132 -80 -306
-42 -388 10 -23 41 -64 68 -90 40 -39 54 -64 79 -133 17 -47 33 -99 36 -115 5
-30 4 -31 -61 -54 -37 -12 -105 -41 -152 -63 -102 -49 -180 -124 -246 -237
-52 -90 -62 -127 -40 -149 24 -25 43 -8 90 82 53 101 128 184 202 223 67 36
195 86 202 79 5 -5 -31 -101 -99 -264 -39 -93 -41 -104 -27 -118 32 -33 54 -9
108 119 28 67 66 163 83 214 l32 92 -16 78 c-9 44 -38 133 -65 198 -44 111
-47 127 -47 205 0 79 4 96 64 260 49 133 69 176 83 178 18 4 19 -1 13 -76 -3
-44 -14 -121 -23 -170 -9 -50 -14 -106 -10 -124 3 -18 38 -76 78 -128 125
-166 153 -267 108 -380 -31 -77 -47 -133 -86 -298 -35 -152 -34 -182 7 -182
25 0 32 16 73 191 19 81 49 186 66 234 16 49 30 97 30 108 0 10 18 39 40 64
45 52 79 134 87 211 5 44 9 52 22 46 156 -63 226 -63 382 0 13 6 17 -2 22 -46
8 -77 42 -159 87 -211 22 -25 40 -54 40 -66 0 -11 12 -51 26 -88 14 -38 43
-142 65 -233 48 -201 53 -212 81 -208 43 6 43 26 -9 229 -28 107 -60 221 -73
254 -43 115 -16 209 109 375 39 52 74 110 77 128 4 18 -1 72 -9 120 -9 48 -19
125 -23 171 -7 78 -6 83 12 79 14 -2 34 -44 83 -178 60 -164 64 -181 64 -260
0 -78 -3 -94 -47 -205 -27 -65 -56 -154 -65 -198 l-16 -78 32 -92 c17 -51 55
-147 83 -214 55 -128 76 -151 108 -119 14 14 12 25 -27 118 -68 163 -104 259
-99 264 7 7 135 -43 202 -79 74 -39 149 -122 202 -223 47 -90 66 -107 90 -82
22 22 12 59 -40 149 -66 113 -144 188 -246 237 -47 22 -115 51 -152 63 -65 23
-66 24 -61 54 3 16 19 68 36 115 25 69 39 94 79 133 27 26 58 67 68 90 38 82
19 256 -42 388 -39 83 -58 102 -114 109 -37 5 -44 8 -29 14 11 4 33 13 49 19
43 16 129 105 156 162 37 77 39 161 6 229 l-26 54 16 88 c24 136 30 380 11
489 -53 300 -381 630 -711 715 -89 22 -230 31 -314 20z m243 -476 c33 -16 91
-59 131 -96 49 -47 88 -74 127 -89 183 -70 267 -279 267 -662 0 -179 -35 -377
-66 -377 -27 0 -72 -29 -80 -52 -5 -13 -7 -60 -5 -106 l3 -82 -94 -93 c-106
-106 -200 -167 -313 -203 -94 -30 -116 -30 -210 0 -113 36 -207 97 -314 203
l-94 94 6 74 c4 44 2 86 -4 104 -11 30 -52 61 -82 61 -16 0 -39 83 -57 207
-21 149 -5 408 24 384 9 -7 24 -7 47 0 19 5 109 9 204 7 94 -1 176 1 183 6 35
21 -13 53 -101 67 -77 12 -213 -7 -292 -41 l-47 -20 19 32 c10 18 51 59 90 91
84 68 146 156 193 275 57 145 106 200 207 238 64 24 186 13 258 -22z m-867
-907 c3 -46 2 -47 -20 -42 -34 9 -64 -25 -48 -54 6 -12 21 -21 34 -21 13 0 28
-6 34 -12 11 -15 45 -178 38 -185 -17 -18 -119 75 -152 139 -37 71 -14 181 44
213 48 26 67 17 70 -38z m1532 38 c40 -21 64 -69 63 -130 0 -58 -19 -99 -70
-156 -34 -37 -90 -75 -99 -67 -6 6 29 172 39 186 5 6 20 12 33 12 13 0 28 9
34 21 16 29 -14 63 -48 54 -23 -6 -24 -4 -18 26 3 17 6 40 6 50 0 23 21 24 60
4z m-1139 -857 l61 -43 -7 -59 c-7 -65 -41 -166 -56 -166 -5 0 -9 6 -9 14 0
27 -67 144 -130 225 -53 68 -63 87 -62 117 3 79 8 80 78 15 35 -33 91 -80 125
-103z m881 93 c1 -36 -6 -51 -62 -122 -63 -81 -130 -198 -130 -225 0 -8 -4
-14 -9 -14 -15 0 -49 102 -56 166 l-6 59 78 57 c43 32 98 78 123 103 49 50 59
47 62 -24z"/>
<path d="M1547 2266 c-64 -14 -81 -25 -75 -51 3 -16 22 -18 198 -19 107 -2
204 -4 214 -7 10 -2 21 2 23 8 7 18 -71 49 -168 68 -94 18 -114 18 -192 1z"/>
<path d="M758 1999 c-22 -12 -24 -39 -3 -39 9 0 43 -14 76 -31 95 -47 202 -49
240 -3 21 25 -5 38 -69 35 -43 -2 -76 5 -126 23 -75 28 -92 31 -118 15z"/>
<path d="M1685 1984 c-43 -17 -77 -23 -121 -22 -91 2 -109 -17 -51 -53 47 -29
132 -22 214 20 34 17 69 31 78 31 21 0 19 27 -4 40 -28 14 -48 12 -116 -16z"/>
<path d="M1066 1484 c-8 -22 -8 -22 17 -35 23 -13 137 -30 197 -30 60 0 174
17 198 30 24 13 24 13 16 35 -9 23 -419 23 -428 0z"/>
</g>
</svg>
