<?xml version="1.0" standalone="no"?>
<!DOCTYPE svg PUBLIC "-//W3C//DTD SVG 20010904//EN"
 "http://www.w3.org/TR/2001/REC-SVG-20010904/DTD/svg10.dtd">
<svg version="1.0" xmlns="http://www.w3.org/2000/svg"
 width="90px" height="90px" viewBox="0 0 318.000000 329.000000"
 preserveAspectRatio="xMidYMid meet">
<metadata>
Created by potrace 1.16, written by Peter Selinger 2001-2019
</metadata>
<g transform="translate(0.000000,329.000000) scale(0.100000,-0.100000)"
fill="#000000" stroke="none">
<path d="M1680 3254 c-90 -45 -192 -140 -242 -225 -43 -72 -47 -102 -17 -122
32 -23 56 -9 90 51 95 169 293 275 480 258 197 -18 361 -144 431 -331 21 -57
22 -78 27 -453 5 -334 8 -394 21 -402 22 -14 47 -12 64 6 14 13 16 61 16 377
0 408 -5 452 -66 577 -50 102 -160 212 -263 263 l-74 37 -197 0 -197 0 -73
-36z"/>
<path d="M1920 3008 c-5 -7 -23 -38 -38 -68 -33 -65 -96 -110 -167 -118 -34
-3 -50 -11 -62 -28 -14 -22 -14 -26 2 -50 16 -25 21 -26 72 -21 69 7 152 47
192 93 l31 35 31 -35 c43 -50 125 -87 204 -94 l65 -5 0 -117 c0 -183 -36 -266
-145 -336 -30 -19 -55 -40 -55 -47 0 -7 10 -60 21 -120 12 -59 20 -109 18
-111 -2 -1 -42 -31 -89 -66 -47 -35 -88 -69 -92 -74 -20 -29 6 -76 41 -76 10
0 62 33 115 73 l98 74 166 -34 c151 -30 168 -32 189 -18 13 9 23 23 23 33 0
40 -23 50 -186 83 l-162 31 -17 80 -17 80 56 49 c40 36 66 72 93 127 l38 76 3
181 c5 220 7 215 -106 215 -105 0 -170 30 -212 96 -16 27 -30 53 -30 60 0 34
-58 57 -80 32z"/>
<path d="M973 2860 c-129 -24 -258 -93 -338 -182 -55 -62 -110 -172 -124 -252
-7 -35 -11 -205 -11 -417 0 -312 2 -360 16 -373 20 -20 48 -20 68 0 14 13 16
61 16 368 0 194 4 377 10 405 29 152 144 277 307 332 56 19 89 23 183 23 94 0
127 -4 183 -23 135 -46 237 -138 289 -261 22 -54 23 -66 28 -448 4 -334 7
-394 20 -402 22 -14 47 -12 64 6 14 13 16 62 16 382 0 288 -3 380 -15 430 -58
245 -272 407 -553 417 -59 2 -130 0 -159 -5z"/>
<path d="M1066 2604 c-9 -8 -16 -21 -16 -28 0 -7 -14 -33 -30 -60 -42 -66
-107 -96 -212 -96 -113 0 -111 5 -106 -215 l3 -181 38 -76 c27 -55 53 -91 93
-127 l56 -49 -17 -80 -17 -80 -137 -26 c-198 -39 -236 -52 -282 -93 -54 -49
-81 -104 -87 -178 -3 -49 -1 -65 12 -78 39 -39 86 -9 86 54 0 53 21 99 57 130
24 21 62 32 189 57 88 18 168 32 180 32 11 0 63 -31 114 -70 51 -38 101 -70
110 -70 9 0 61 33 115 73 l98 74 178 -36 c145 -30 183 -41 205 -61 34 -32 54
-79 54 -129 0 -43 20 -71 50 -71 47 0 65 74 38 162 -15 52 -87 132 -136 151
-21 8 -110 30 -199 47 l-161 32 -17 80 -17 80 56 49 c40 36 66 72 93 127 l38
76 3 181 c5 220 7 215 -106 215 -105 0 -170 30 -212 96 -16 27 -30 53 -30 60
0 19 -29 44 -50 44 -10 0 -26 -7 -34 -16z m65 -189 c43 -49 125 -86 204 -93
l65 -5 0 -117 c0 -180 -37 -268 -140 -332 -27 -17 -52 -39 -55 -48 -3 -10 3
-60 15 -111 11 -51 20 -100 20 -109 -1 -15 -121 -110 -140 -110 -19 0 -139 95
-140 110 0 9 9 58 20 109 12 51 18 101 15 111 -3 9 -28 31 -55 48 -103 64
-140 152 -140 332 l0 117 65 5 c79 7 162 45 202 93 15 18 29 34 31 34 1 1 16
-15 33 -34z"/>
<path d="M2466 1754 c-13 -12 -16 -39 -16 -125 l0 -109 -109 0 c-144 0 -141 3
-141 -150 0 -153 -3 -150 141 -150 l109 0 0 -109 c0 -144 -3 -141 150 -141
153 0 150 -3 150 141 l0 109 109 0 c144 0 141 -3 141 150 0 153 3 150 -141
150 l-109 0 0 109 c0 144 3 141 -150 141 -94 0 -122 -3 -134 -16z m184 -193
c0 -143 -2 -141 141 -141 l109 0 0 -50 0 -50 -109 0 c-143 0 -141 2 -141 -141
l0 -109 -50 0 -50 0 0 109 c0 143 2 141 -141 141 l-109 0 0 50 0 50 109 0 c86
0 113 3 125 16 13 12 16 39 16 125 l0 109 50 0 50 0 0 -109z"/>
<path d="M730 1007 c-26 -8 -102 -77 -282 -256 -137 -135 -248 -253 -248 -262
0 -24 27 -49 53 -49 14 0 96 74 252 229 126 127 243 235 258 240 18 7 158 11
380 11 315 0 356 -2 387 -18 99 -49 109 -189 18 -254 -32 -23 -38 -23 -328
-26 -189 -2 -299 -7 -307 -14 -20 -16 -16 -66 6 -78 13 -6 189 -10 502 -10
l483 0 156 154 c175 173 204 190 282 167 78 -24 119 -94 103 -178 -6 -32 -37
-68 -192 -225 -102 -103 -201 -194 -219 -203 -28 -13 -121 -15 -724 -15 -457
0 -698 -4 -711 -10 -23 -13 -26 -62 -5 -79 10 -8 203 -11 732 -9 l719 3 45 27
c55 33 411 390 435 437 9 18 19 56 22 85 19 182 -153 319 -328 261 -47 -16
-74 -38 -205 -167 l-150 -148 -97 0 c-53 0 -97 1 -97 3 0 2 9 22 20 45 26 54
27 151 1 207 -23 51 -98 118 -149 133 -51 16 -761 15 -812 -1z"/>
</g>
</svg>
